<svg xmlns="http://www.w3.org/2000/svg" width="28" height="27" viewBox="0 0 28 27" fill="none"><path d="M4.27637 14.5597V13.6593C4.27637 10.3362 4.27637 8.67527 4.80165 7.34695C5.64613 5.21335 7.43141 3.53111 9.69605 2.73479C11.1028 2.23975 12.8645 2.23975 16.3925 2.23975C18.4063 2.23975 19.4143 2.23975 20.2184 2.52311C21.512 2.97783 22.5324 3.93879 23.0151 5.15847C23.3152 5.91671 23.3152 6.86647 23.3152 8.76487V14.5597" stroke="url(#paint0_linear_2405_3558)" stroke-width="1.68" stroke-linecap="round" stroke-linejoin="round"></path><path d="M4.27637 13.4397C4.27637 12.4497 4.66966 11.5002 5.36973 10.8001C6.06979 10.1001 7.01928 9.70679 8.00933 9.70679C8.75525 9.70679 9.63445 9.83671 10.3591 9.64295C10.6757 9.55773 10.9644 9.39078 11.1962 9.15882C11.4279 8.92686 11.5946 8.63805 11.6796 8.32135C11.8733 7.59671 11.7434 6.71751 11.7434 5.97159C11.7437 4.98174 12.1371 4.03253 12.8372 3.33271C13.5372 2.63289 14.4865 2.23975 15.4764 2.23975M4.27637 24.6397V21.2797M4.27637 21.2797V19.2637C4.27637 18.6298 4.27637 18.314 4.47349 18.1169C4.66837 17.9197 4.98645 17.9197 5.62037 17.9197H6.51637C6.96193 17.9197 7.38925 18.0967 7.70431 18.4118C8.01937 18.7269 8.19637 19.1542 8.19637 19.5997C8.19637 20.0453 8.01937 20.4726 7.70431 20.7877C7.38925 21.1027 6.96193 21.2797 6.51637 21.2797H4.27637ZM23.3164 17.9197H21.6364C20.5802 17.9197 20.0527 17.9197 19.7245 18.2479C19.3964 18.5761 19.3964 19.1036 19.3964 20.1597V21.2797M19.3964 21.2797V24.6397M19.3964 21.2797H22.1964M16.0364 21.2797C16.0364 22.1709 15.6824 23.0255 15.0522 23.6556C14.4221 24.2857 13.5675 24.6397 12.6764 24.6397C12.2575 24.6397 12.0492 24.6397 11.8924 24.5501C11.5194 24.334 11.5564 23.8983 11.5564 23.5197V19.0397C11.5564 18.6612 11.5194 18.2255 11.8924 18.0093C12.0492 17.9197 12.2575 17.9197 12.6764 17.9197C13.1176 17.9197 13.5545 18.0067 13.9622 18.1755C14.3698 18.3444 14.7402 18.5919 15.0522 18.9039C15.3643 19.2159 15.6117 19.5863 15.7806 19.9939C15.9495 20.4016 16.0364 20.8385 16.0364 21.2797Z" stroke="url(#paint1_linear_2405_3558)" stroke-width="1.68" stroke-linecap="round" stroke-linejoin="round"></path><defs><linearGradient id="paint0_linear_2405_3558" x1="10.0488" y1="4.79367" x2="19.6002" y2="14.0304" gradientUnits="userSpaceOnUse"><stop stop-color="#D08A64"></stop><stop offset="1" stop-color="#D9BCA5"></stop></linearGradient><linearGradient id="paint1_linear_2405_3558" x1="10.0491" y1="6.88324" x2="24.4575" y2="14.5472" gradientUnits="userSpaceOnUse"><stop stop-color="#D08A64"></stop><stop offset="1" stop-color="#D9BCA5"></stop></linearGradient></defs></svg>